<svg width="90" height="29" viewBox="0 0 90 29" fill="none" xmlns="http://www.w3.org/2000/svg">
<g clip-path="url(#clip0_61_417)">
<path d="M25.7996 19.9942C25.6584 19.6534 25.5261 19.2951 25.3849 18.9893L24.732 17.5301L24.7055 17.5039C22.7643 13.3097 20.6908 9.04562 18.4937 4.85144L18.4055 4.67668C18.1849 4.266 17.9643 3.81163 17.7349 3.39222C17.4525 2.89416 17.179 2.36115 16.729 1.85435C16.2904 1.32408 15.7383 0.896848 15.1127 0.603488C14.4871 0.310129 13.8036 0.157959 13.1114 0.157959C12.4192 0.157959 11.7356 0.310129 11.11 0.603488C10.4844 0.896848 9.93235 1.32408 9.49372 1.85435C9.07901 2.36115 8.77019 2.89416 8.48783 3.39222C8.26724 3.84659 8.04666 4.29222 7.81724 4.7029L7.72901 4.87765C5.56724 9.07183 3.45842 13.3359 1.51724 17.5301L1.4643 17.5825C1.27019 18.0369 1.04077 18.5087 0.820186 19.0155C0.679009 19.3213 0.537833 19.6534 0.396656 20.0204C0.0155087 20.9814 -0.106204 22.0241 0.0435143 23.0458C0.193232 24.0676 0.609213 25.0331 1.25046 25.8471C1.89171 26.6612 2.73609 27.2957 3.70038 27.6882C4.66468 28.0807 5.71561 28.2176 6.7496 28.0854C7.74089 27.9562 8.69543 27.6292 9.55548 27.1243C10.7025 26.4864 11.8055 25.5602 13.0408 24.2233C14.2761 25.5602 15.4055 26.4864 16.5261 27.133C17.6037 27.7594 18.824 28.1051 20.0731 28.1378C21.5196 28.1438 22.9194 27.6313 24.0141 26.695C25.1088 25.7587 25.8245 24.4617 26.029 23.0437C26.2653 22.0246 26.1854 20.9587 25.7996 19.9854V19.9942ZM13.129 21.4446C11.6114 19.5223 10.6231 17.7573 10.2878 16.2456C10.1489 15.6855 10.119 15.1042 10.1996 14.533C10.2614 14.0874 10.429 13.6942 10.6584 13.3621C11.1878 12.6019 12.1143 12.1301 13.129 12.1301C13.6109 12.1155 14.0889 12.2196 14.5201 12.4332C14.9513 12.6467 15.3222 12.9629 15.5996 13.3534C15.829 13.7029 15.9967 14.0874 16.0496 14.533C16.1378 15.0398 16.1025 15.6252 15.9614 16.2456C15.6261 17.7311 14.6378 19.5136 13.129 21.4446ZM24.3702 22.7378C24.2699 23.4578 23.9809 24.1392 23.532 24.7141C23.083 25.289 22.4898 25.7374 21.8114 26.0145C21.1408 26.2942 20.3996 26.3728 19.6761 26.2942C18.9702 26.2068 18.2643 25.9796 17.5408 25.5602C16.3395 24.8249 15.2592 23.9113 14.3378 22.8514C16.1908 20.5796 17.3114 18.5087 17.7349 16.665C17.9378 15.7912 17.9643 15.0048 17.8761 14.2796C17.7659 13.5922 17.507 12.9364 17.1172 12.3573C16.6722 11.7292 16.0781 11.2191 15.3873 10.8717C14.6965 10.5243 13.9301 10.3503 13.1555 10.365C11.5231 10.365 10.0672 11.1165 9.18489 12.3485C8.78769 12.9262 8.53099 13.5872 8.43489 14.2796C8.32019 15.0136 8.34666 15.8262 8.57607 16.665C8.9996 18.5087 10.1467 20.6058 11.9731 22.8689C11.0674 23.9491 9.98462 24.8706 8.77018 25.5951C8.03783 26.0145 7.34077 26.233 6.63489 26.3204C5.53714 26.4596 4.42826 26.1642 3.54927 25.4982C2.67028 24.8323 2.09223 23.8497 1.94077 22.7641C1.85254 22.065 1.9143 21.366 2.19666 20.5796C2.28489 20.3 2.41724 20.0204 2.55842 19.6883C2.75254 19.234 2.98195 18.7621 3.20254 18.2903L3.23783 18.2291C5.14371 14.0611 7.22607 9.80581 9.38783 5.63785L9.47607 5.46309C9.69666 5.04367 9.91724 4.59804 10.1467 4.17863C10.3761 3.73299 10.6231 3.30484 10.9408 2.95532C11.2157 2.63029 11.5593 2.3689 11.9473 2.18955C12.3352 2.0102 12.7582 1.91726 13.1864 1.91726C13.6145 1.91726 14.0375 2.0102 14.4255 2.18955C14.8134 2.3689 15.157 2.63029 15.432 2.95532C15.7408 3.30484 15.9967 3.73299 16.2261 4.17863C16.4467 4.59804 16.6672 5.05241 16.8967 5.46309L16.9849 5.63785C19.1378 9.80581 21.2202 14.0611 23.1614 18.2291L23.1878 18.2553C23.4172 18.7097 23.6114 19.2165 23.8319 19.6534C23.9731 19.9942 24.1143 20.265 24.2025 20.5534C24.3702 21.3398 24.4584 22.0388 24.3702 22.7378ZM36.6525 21.2524C35.9876 21.262 35.3291 21.1233 34.7258 20.8465C34.1224 20.5697 33.5897 20.1619 33.1672 19.6534C32.2179 18.5699 31.714 17.1728 31.7555 15.7388C31.741 14.2737 32.2611 12.8526 33.2202 11.7369C33.6638 11.2219 34.2161 10.8095 34.8381 10.5287C35.4601 10.2479 36.1366 10.1055 36.8202 10.1116C37.4634 10.0942 38.1004 10.239 38.6715 10.5325C39.2426 10.826 39.729 11.2585 40.0849 11.7893L40.1731 10.4175H42.7496V20.9728H40.1643L40.0761 19.4349C39.7092 20.0017 39.202 20.4662 38.6028 20.7843C38.0037 21.1024 37.3323 21.2635 36.6525 21.2524ZM37.3231 18.7359C37.8349 18.7359 38.2849 18.5961 38.7084 18.3427C39.0967 18.0631 39.4143 17.6961 39.6614 17.2505C39.8819 16.8048 39.9967 16.2718 39.9967 15.6777C40.0311 15.1616 39.9296 14.6455 39.7023 14.1799C39.4749 13.7143 39.1294 13.3151 38.6996 13.0213C38.2866 12.7665 37.8097 12.6314 37.3231 12.6314C36.8365 12.6314 36.3597 12.7665 35.9467 13.0213C35.5584 13.301 35.2408 13.6679 34.9937 14.1136C34.7604 14.605 34.6456 15.1435 34.6584 15.6864C34.624 16.2025 34.7255 16.7185 34.9528 17.1841C35.1802 17.6497 35.5256 18.0489 35.9555 18.3427C36.3702 18.5961 36.8202 18.7359 37.3231 18.7359ZM47.1614 7.56892C47.1614 7.87474 47.1084 8.15435 46.9672 8.38154C46.8261 8.59998 46.6319 8.80095 46.3761 8.94076C46.1202 9.08057 45.8467 9.13299 45.5643 9.13299C45.2819 9.13299 44.9996 9.08057 44.7437 8.94076C44.5017 8.80734 44.2982 8.61483 44.1525 8.38154C44.0159 8.13262 43.9489 7.85208 43.9584 7.56892C43.9584 7.25435 44.0202 6.97474 44.1525 6.7563C44.2937 6.49416 44.4967 6.33688 44.7437 6.19707C44.9996 6.05727 45.2731 5.9961 45.5643 5.9961C45.8452 5.98969 46.1229 6.05556 46.3703 6.18728C46.6178 6.319 46.8265 6.51205 46.9761 6.74756C47.1045 7.00231 47.1681 7.28427 47.1614 7.56892ZM44.1614 20.9378V10.4H46.9672V20.9553H44.1525L44.1614 20.9378ZM54.4672 13.1611V13.1961C54.3349 13.1349 54.1584 13.1087 54.0261 13.0825C53.8496 13.0476 53.7084 13.0476 53.5408 13.0476C52.7555 13.0476 52.1643 13.2747 51.7761 13.7466C51.3525 14.2272 51.1584 14.9 51.1584 15.765V20.9466H48.3437V10.3912H50.929L51.0172 11.9903C51.2996 11.4311 51.6349 11.0116 52.1114 10.6971C52.5853 10.3914 53.1433 10.2388 53.7084 10.2602C53.9114 10.2602 54.1055 10.2777 54.2731 10.3126C54.3614 10.3388 54.4143 10.3388 54.4672 10.365V13.1611ZM55.5966 20.9378V6.066H58.4025V11.7456C58.7996 11.2388 59.2496 10.8456 59.8143 10.5398C60.7083 10.1057 61.7239 9.98259 62.6972 10.1903C63.6706 10.3979 64.5448 10.9243 65.179 11.6845C66.1305 12.7702 66.6344 14.1708 66.5908 15.6078C66.6053 17.0729 66.0852 18.494 65.1261 19.6097C64.6824 20.1247 64.1302 20.5371 63.5082 20.8179C62.8862 21.0987 62.2096 21.2411 61.5261 21.2349C60.8829 21.2524 60.2458 21.1075 59.6747 20.8141C59.1036 20.5206 58.6172 20.0881 58.2614 19.5573L58.1731 20.9291L55.5966 20.9553V20.9378ZM61.0231 18.7359C61.5261 18.7359 61.9761 18.5961 62.3996 18.3427C62.7878 18.0631 63.1055 17.6961 63.3525 17.2505C63.582 16.8048 63.6878 16.2718 63.6878 15.6777C63.6878 15.0922 63.582 14.5592 63.3525 14.1136C63.1208 13.6839 62.7953 13.3107 62.3996 13.0213C61.9866 12.7665 61.5097 12.6314 61.0231 12.6314C60.5365 12.6314 60.0597 12.7665 59.6467 13.0213C59.2496 13.301 58.9408 13.6679 58.6849 14.1136C58.4516 14.605 58.3368 15.1435 58.3496 15.6864C58.3152 16.2025 58.4166 16.7185 58.644 17.1841C58.8713 17.6497 59.2168 18.0489 59.6467 18.3427C60.0614 18.5961 60.5114 18.7359 61.0231 18.7359ZM67.6496 20.9466V10.3912H70.2349L70.3231 11.7631C70.648 11.2372 71.1089 10.8069 71.658 10.5165C72.2072 10.2262 72.8247 10.0864 73.4467 10.1116C74.1579 10.0995 74.857 10.2952 75.4565 10.6744C76.056 11.0537 76.5293 11.5995 76.8172 12.2437C77.1261 12.9078 77.2937 13.7291 77.2937 14.6466V20.9728H74.479V15.0136C74.479 14.2796 74.3114 13.7029 73.9761 13.2747C73.6408 12.8553 73.1819 12.6281 72.5996 12.6281C72.1761 12.6281 71.8055 12.7155 71.479 12.9078C71.1702 13.1087 70.9143 13.3621 70.7202 13.7204C70.5239 14.0825 70.4266 14.4891 70.4378 14.9V20.9466H67.6496ZM78.6967 20.9466V6.05727H81.5114V11.7369C81.8926 11.2273 82.3886 10.8127 82.9599 10.526C83.5312 10.2393 84.1621 10.0885 84.8025 10.0854C85.4674 10.0758 86.126 10.2145 86.7293 10.4913C87.3327 10.7682 87.8653 11.1759 88.2878 11.6845C89.2325 12.7701 89.7329 14.1665 89.6908 15.599C89.7061 17.0643 89.1859 18.4857 88.2261 19.601C87.7824 20.1159 87.2302 20.5284 86.6082 20.8092C85.9862 21.09 85.3096 21.2323 84.6261 21.2262C83.9829 21.2436 83.3458 21.0988 82.7747 20.8053C82.2036 20.5118 81.7172 20.0794 81.3614 19.5485L81.282 20.9204L78.6967 20.9466ZM84.1496 18.7359C84.6614 18.7359 85.1114 18.5961 85.5261 18.3427C85.9231 18.0631 86.2319 17.6961 86.4878 17.2505C86.7084 16.8048 86.8231 16.2718 86.8231 15.6777C86.8575 15.1616 86.7561 14.6455 86.5287 14.1799C86.3014 13.7143 85.9559 13.3151 85.5261 13.0213C85.1131 12.7665 84.6362 12.6314 84.1496 12.6314C83.663 12.6314 83.1861 12.7665 82.7731 13.0213C82.3849 13.301 82.0672 13.6679 81.8202 14.1136C81.5739 14.6006 81.4584 15.1423 81.4849 15.6864C81.4505 16.2025 81.5519 16.7185 81.7793 17.1841C82.0066 17.6497 82.3521 18.0489 82.7819 18.3427C83.1967 18.5961 83.6202 18.7359 84.1496 18.7359Z" fill="#FF385C"/>
</g>
<defs>
<clipPath id="clip0_61_417">
<rect width="90" height="27.9612" fill="white" transform="translate(0 0.177246)"/>
</clipPath>
</defs>
</svg>
