<svg width="90" height="29" viewBox="0 0 90 29" fill="none" xmlns="http://www.w3.org/2000/svg">
<g clip-path="url(#clip0_61_426)">
<path fill-rule="evenodd" clip-rule="evenodd" d="M55.8342 22.0438C50.6042 26.0181 43.0235 28.1385 36.4967 28.1385C27.3451 28.1385 19.1063 24.6489 12.8734 18.845C12.3837 18.3886 12.8224 17.7666 13.4101 18.1221C20.1367 22.1569 28.4538 24.5843 37.0452 24.5843C42.8394 24.5843 49.2134 23.3484 55.0742 20.7837C55.9596 20.3959 56.7 21.3814 55.8342 22.0438Z" fill="#FF9900"/>
<path fill-rule="evenodd" clip-rule="evenodd" d="M58.0088 19.479C57.3428 18.5985 53.5897 19.063 51.9051 19.2689C51.3919 19.3336 51.3135 18.8731 51.7758 18.5419C54.765 16.3731 59.6698 16.9991 60.2418 17.7261C60.8138 18.4571 60.0929 23.5259 57.284 25.9452C56.8531 26.3168 56.4417 26.1189 56.6337 25.6261C57.2644 24.0025 58.6787 20.3635 58.0088 19.479Z" fill="#FF9900"/>
<path fill-rule="evenodd" clip-rule="evenodd" d="M52.0225 3.23054V1.12224C52.0225 0.803172 52.2575 0.589111 52.5396 0.589111H61.6951C61.989 0.589111 62.224 0.807211 62.224 1.12224V2.92762C62.2201 3.23054 61.9733 3.62635 61.5345 4.25237L56.7903 11.2356C58.5532 11.1912 60.4141 11.4618 62.0125 12.3907C62.3729 12.6007 62.4708 12.9077 62.4983 13.2106V15.4603C62.4983 15.7672 62.1692 16.1267 61.8244 15.9409C59.0076 14.4182 55.2663 14.2526 52.1518 15.957C51.8344 16.1348 51.5014 15.7793 51.5014 15.4724V13.3358C51.5014 12.9925 51.5053 12.4069 51.8383 11.8859L57.3348 3.75963H52.5514C52.2575 3.75963 52.0225 3.54557 52.0225 3.23054Z" fill="black"/>
<path fill-rule="evenodd" clip-rule="evenodd" d="M18.6245 16.3852H15.839C15.5726 16.3651 15.3611 16.1591 15.3415 15.8965V1.15869C15.3415 0.863854 15.5805 0.629598 15.8782 0.629598H18.4756C18.7459 0.641706 18.9614 0.855774 18.981 1.12234V3.04889H19.0319C19.7097 1.18696 20.9829 0.318604 22.6988 0.318604C24.4422 0.318604 25.5313 1.18696 26.3148 3.04889C26.9886 1.18696 28.5204 0.318604 30.1619 0.318604C31.3294 0.318604 32.6065 0.815385 33.3862 1.93011C34.2676 3.17005 34.0874 4.97139 34.0874 6.55059L34.0835 15.8521C34.0835 16.147 33.8445 16.3852 33.5468 16.3852H30.7653C30.4871 16.3651 30.2638 16.1348 30.2638 15.8521V8.04093C30.2638 7.41895 30.3186 5.86802 30.1854 5.27834C29.9778 4.28882 29.3549 4.01013 28.5479 4.01013C27.874 4.01013 27.1689 4.47461 26.8829 5.21776C26.5969 5.96091 26.6243 7.20488 26.6243 8.04093V15.8521C26.6243 16.147 26.3853 16.3852 26.0876 16.3852H23.3061C23.024 16.3651 22.8046 16.1348 22.8046 15.8521L22.8007 8.04093C22.8007 6.39711 23.0632 3.97782 21.0848 3.97782C19.0828 3.97782 19.1612 6.33653 19.1612 8.04093V15.8521C19.1612 16.147 18.9222 16.3852 18.6245 16.3852" fill="black"/>
<path fill-rule="evenodd" clip-rule="evenodd" d="M70.1061 0.318604C74.2393 0.318604 76.4762 3.97783 76.4762 8.63061C76.4762 13.1259 74.0042 16.6922 70.1061 16.6922C66.0475 16.6922 63.8379 13.033 63.8379 8.4731C63.8379 3.88493 66.0749 0.318604 70.1061 0.318604ZM70.1296 3.32757C68.0768 3.32757 67.9475 6.21132 67.9475 8.00863C67.9475 9.80997 67.9201 13.655 70.1061 13.655C72.2648 13.655 72.3666 10.5531 72.3666 8.66292C72.3666 7.41895 72.3157 5.93264 71.9513 4.75329C71.6379 3.72742 71.015 3.32757 70.1296 3.32757Z" fill="black"/>
<path fill-rule="evenodd" clip-rule="evenodd" d="M81.8356 16.3852H79.062C78.7838 16.3651 78.5605 16.1348 78.5605 15.8521L78.5566 1.11022C78.5801 0.839618 78.8112 0.629598 79.0933 0.629598H81.675C81.9179 0.641706 82.1177 0.811347 82.1726 1.04156V3.29525H82.2235C83.0031 1.27986 84.0961 0.318604 86.0197 0.318604C87.2694 0.318604 88.4878 0.783075 89.2713 2.05532C90 3.23467 90 5.21776 90 6.64348V15.9208C89.9687 16.1793 89.7375 16.3852 89.4633 16.3852H86.67C86.4154 16.3651 86.2038 16.1712 86.1764 15.9208V7.91573C86.1764 6.30422 86.3566 3.94551 84.433 3.94551C83.7553 3.94551 83.1324 4.41402 82.8229 5.12486C82.4311 6.02554 82.3802 6.92217 82.3802 7.91573V15.8521C82.3763 16.147 82.1334 16.3852 81.8357 16.3852" fill="black"/>
<path fill-rule="evenodd" clip-rule="evenodd" d="M44.7239 9.3455C44.7239 10.4643 44.7513 11.3972 44.2028 12.3908C43.7601 13.1986 43.055 13.6954 42.2753 13.6954C41.2058 13.6954 40.579 12.8553 40.579 11.6153C40.579 9.16779 42.7063 8.72351 44.7239 8.72351V9.3455ZM47.5328 16.3449C47.3487 16.5145 47.0823 16.5266 46.8747 16.4135C45.9501 15.6219 45.7816 15.2544 45.2763 14.4991C43.7484 16.1066 42.6632 16.5872 40.6848 16.5872C38.3381 16.5872 36.5164 15.0969 36.5164 12.1121C36.5164 9.7817 37.7387 8.19442 39.486 7.41895C40.9982 6.73234 43.1098 6.61118 44.7239 6.42135V6.04978C44.7239 5.3672 44.7748 4.55943 44.383 3.96975C44.0461 3.44066 43.3958 3.22256 42.8199 3.22256C41.7582 3.22256 40.8141 3.78396 40.5829 4.94716C40.5359 5.20565 40.3518 5.4601 40.0971 5.47222L37.3979 5.17334C37.1706 5.12083 36.916 4.931 36.9826 4.57155C37.6016 1.19505 40.5633 0.177246 43.2117 0.177246C44.5672 0.177246 46.3379 0.548824 47.4075 1.60701C48.763 2.91157 48.6337 4.65232 48.6337 6.54656V11.0216C48.6337 12.3666 49.1743 12.9563 49.6836 13.6833C49.8599 13.9417 49.8991 14.2527 49.6718 14.4466C49.1038 14.9353 48.093 15.8441 47.5367 16.353L47.5328 16.3449" fill="black"/>
<path fill-rule="evenodd" clip-rule="evenodd" d="M8.20746 9.34574C8.20746 10.4645 8.23488 11.3975 7.68642 12.3911C7.24372 13.1988 6.54246 13.6956 5.75893 13.6956C4.68942 13.6956 4.06651 12.8555 4.06651 11.6156C4.06651 9.16803 6.19379 8.72375 8.20746 8.72375V9.34574ZM11.0164 16.3451C10.8323 16.5147 10.5659 16.5269 10.3582 16.4138C9.43368 15.6222 9.26914 15.2546 8.75985 14.4993C7.23197 16.1068 6.1507 16.5874 4.16837 16.5874C1.82562 16.5874 0 15.0971 0 12.1124C0 9.78194 1.22622 8.19466 2.96957 7.4192C4.48178 6.73259 6.59339 6.61142 8.20746 6.4216V6.05002C8.20746 5.36745 8.25839 4.55967 7.87054 3.97C7.52971 3.4409 6.87938 3.2228 6.3074 3.2228C5.24572 3.2228 4.29765 3.78421 4.06651 4.9474C4.0195 5.20589 3.83537 5.46034 3.58464 5.47246L0.88147 5.17358C0.654246 5.12108 0.403516 4.93125 0.466199 4.57179C1.0891 1.19529 4.04692 0.17749 6.69525 0.17749C8.05075 0.17749 9.82153 0.549068 10.891 1.60725C12.2465 2.91181 12.1173 4.65257 12.1173 6.5468V11.0219C12.1173 12.3668 12.6579 12.9565 13.1672 13.6835C13.3474 13.942 13.3866 14.253 13.1594 14.4468C12.5913 14.9355 11.5806 15.8443 11.0242 16.3532L11.0164 16.3451" fill="black"/>
</g>
<defs>
<clipPath id="clip0_61_426">
<rect width="90" height="27.9612" fill="white" transform="translate(0 0.177246)"/>
</clipPath>
</defs>
</svg>
