<svg width="90" height="31" viewBox="0 0 90 31" fill="none" xmlns="http://www.w3.org/2000/svg">
<path d="M38.2996 15.5468C38.2996 19.7547 34.9941 22.8555 30.9374 22.8555C26.8808 22.8555 23.5753 19.7547 23.5753 15.5468C23.5753 11.3092 26.8808 8.23804 30.9374 8.23804C34.9941 8.23804 38.2996 11.3092 38.2996 15.5468ZM35.0768 15.5468C35.0768 12.9172 33.161 11.118 30.9374 11.118C28.7139 11.118 26.7981 12.9172 26.7981 15.5468C26.7981 18.15 28.7139 19.9755 30.9374 19.9755C33.161 19.9755 35.0768 18.1467 35.0768 15.5468Z" fill="#EA4335"/>
<path d="M54.1819 15.5468C54.1819 19.7547 50.8764 22.8555 46.8198 22.8555C42.7632 22.8555 39.4577 19.7547 39.4577 15.5468C39.4577 11.3125 42.7632 8.23804 46.8198 8.23804C50.8764 8.23804 54.1819 11.3092 54.1819 15.5468ZM50.9591 15.5468C50.9591 12.9172 49.0433 11.118 46.8198 11.118C44.5963 11.118 42.6805 12.9172 42.6805 15.5468C42.6805 18.15 44.5963 19.9755 46.8198 19.9755C49.0433 19.9755 50.9591 18.1467 50.9591 15.5468Z" fill="#FBBC05"/>
<path d="M69.4025 8.67959V21.8011C69.4025 27.1986 66.2062 29.4031 62.4275 29.4031C58.8705 29.4031 56.7297 27.0338 55.9223 25.0963L58.7282 23.933C59.2279 25.1226 60.4521 26.5264 62.4242 26.5264C64.8429 26.5264 66.3418 25.0402 66.3418 22.2426V21.1914H66.2293C65.508 22.0779 64.1183 22.8522 62.3646 22.8522C58.6951 22.8522 55.3334 19.6691 55.3334 15.5731C55.3334 11.4476 58.6951 8.23804 62.3646 8.23804C64.115 8.23804 65.5047 9.01241 66.2293 9.87245H66.3418V8.68289H69.4025V8.67959ZM66.5702 15.5731C66.5702 12.9996 64.8463 11.118 62.6525 11.118C60.429 11.118 58.5661 12.9996 58.5661 15.5731C58.5661 18.1203 60.429 19.9755 62.6525 19.9755C64.8463 19.9755 66.5702 18.1203 66.5702 15.5731Z" fill="#4285F4"/>
<path d="M74.4485 0.988525V22.4073H71.3051V0.988525H74.4485Z" fill="#34A853"/>
<path d="M86.6979 17.9521L89.1994 19.6129C88.392 20.8025 86.4464 22.8521 83.0847 22.8521C78.9155 22.8521 75.8019 19.6426 75.8019 15.5434C75.8019 11.197 78.942 8.23462 82.724 8.23462C86.5325 8.23462 88.3953 11.253 89.0041 12.8841L89.3383 13.7145L79.5277 17.761C80.2788 19.2274 81.4468 19.9754 83.0847 19.9754C84.7258 19.9754 85.8641 19.1714 86.6979 17.9521ZM78.9983 15.3226L85.5564 12.6106C85.1957 11.6979 84.1104 11.0619 82.8332 11.0619C81.1953 11.0619 78.9155 12.5019 78.9983 15.3226Z" fill="#EA4335"/>
<path d="M11.677 13.6453V10.5445H22.1692C22.2718 11.0849 22.3247 11.7242 22.3247 12.4162C22.3247 14.7426 21.6861 17.6193 19.6281 19.6689C17.6262 21.7449 15.0685 22.8521 11.6803 22.8521C5.40011 22.8521 0.119232 17.7577 0.119232 11.5034C0.119232 5.24916 5.40011 0.154785 11.6803 0.154785C15.1545 0.154785 17.6295 1.51241 19.4891 3.28192L17.292 5.46993C15.9586 4.22435 14.152 3.25556 11.677 3.25556C7.09092 3.25556 3.50416 6.9363 3.50416 11.5034C3.50416 16.0706 7.09092 19.7513 11.677 19.7513C14.6516 19.7513 16.3457 18.5617 17.431 17.4809C18.3111 16.6044 18.8902 15.3522 19.1185 13.642L11.677 13.6453Z" fill="#4285F4"/>
</svg>
