<svg width="90" height="27" viewBox="0 0 90 27" fill="none" xmlns="http://www.w3.org/2000/svg">
<g clip-path="url(#clip0_61_447)">
<path d="M9.74652 4.55737V11.8107H3.13764V4.55737H0V21.8717H3.13764V14.8539H9.74652V21.8717H12.8842V4.55737H9.74652Z" fill="#33475B"/>
<path d="M22.9258 16.2749C22.9258 16.9688 22.6523 17.6343 22.1655 18.1249C21.6787 18.6156 21.0185 18.8913 20.3301 18.8913C19.6416 18.8913 18.9814 18.6156 18.4946 18.1249C18.0078 17.6343 17.7343 16.9688 17.7343 16.2749V8.85889H14.7581V16.2749C14.7581 17.763 15.3446 19.1901 16.3885 20.2423C17.4324 21.2946 18.8483 21.8857 20.3247 21.8857C21.801 21.8857 23.2169 21.2946 24.2608 20.2423C25.3048 19.1901 25.8913 17.763 25.8913 16.2749V8.85889H22.9258V16.2749Z" fill="#33475B"/>
<path d="M44.9771 9.62276C44.9771 8.10268 45.9748 7.62078 47.0678 7.62078C47.9487 7.62078 49.1124 8.29637 49.8734 9.11606L51.8227 6.80108C50.8496 5.47469 48.8757 4.55737 47.26 4.55737C44.0316 4.55737 41.6965 6.46328 41.6965 9.62276C41.6965 15.4846 48.805 13.6252 48.805 16.9055C48.805 17.9173 47.8303 18.8114 46.7142 18.8114C44.954 18.8114 44.3837 17.9437 43.575 17.0264L41.412 19.2933C42.7956 21.0055 44.502 21.8748 46.5467 21.8748C49.6136 21.8748 52.081 19.9457 52.081 16.9303C52.081 10.4223 44.9725 12.4444 44.9725 9.62276" fill="#33475B"/>
<path d="M88.953 19.1059C87.1944 19.1059 86.6947 18.3389 86.6947 17.1644V11.9657H89.4281V9.33153H86.6947V5.85596L83.677 7.22108V17.8105C83.677 20.5191 85.531 21.8842 88.0737 21.8842C88.4725 21.8915 88.871 21.8593 89.2636 21.7881L89.9999 19.0563C89.6679 19.0796 89.2866 19.1028 88.953 19.1028" fill="#33475B"/>
<path d="M34.2543 8.94556C32.78 8.94556 31.7515 9.37632 30.7569 10.3603V4.66113H27.7761V15.2242C27.7761 19.1786 30.6124 21.8871 33.7992 21.8871C37.335 21.8871 40.445 19.1305 40.445 15.4179C40.445 11.7517 37.5825 8.9471 34.2543 8.9471V8.94556ZM34.2358 18.864C33.5669 18.864 32.913 18.6641 32.3568 18.2895C31.8007 17.9149 31.3672 17.3825 31.1112 16.7596C30.8552 16.1367 30.7882 15.4513 30.9187 14.79C31.0492 14.1288 31.3713 13.5214 31.8443 13.0446C32.3173 12.5679 32.92 12.2432 33.576 12.1116C34.2321 11.9801 34.9121 12.0476 35.5301 12.3056C36.1481 12.5636 36.6763 13.0006 37.0479 13.5612C37.4195 14.1218 37.6179 14.7809 37.6179 15.4551C37.6179 16.3592 37.2616 17.2263 36.6273 17.8656C35.993 18.5049 35.1328 18.864 34.2358 18.864Z" fill="#33475B"/>
<path d="M66.6206 15.26C66.6206 11.5412 63.5168 8.79077 59.9748 8.79077C56.788 8.79077 53.9517 11.4993 53.9517 15.4537V26.023H56.9325V20.3161C57.9256 21.2985 58.9556 21.7308 60.4283 21.7308C63.7566 21.7308 66.619 18.9277 66.619 15.26H66.6206ZM63.7981 15.2228C63.7981 15.8971 63.5997 16.5561 63.2281 17.1167C62.8565 17.6773 62.3283 18.1143 61.7103 18.3723C61.0923 18.6303 60.4123 18.6978 59.7562 18.5663C59.1002 18.4347 58.4975 18.1101 58.0245 17.6333C57.5515 17.1566 57.2294 16.5491 57.0989 15.8879C56.9684 15.2266 57.0354 14.5412 57.2914 13.9183C57.5474 13.2954 57.9809 12.763 58.537 12.3884C59.0932 12.0138 59.7471 11.8139 60.416 11.8139C61.313 11.8139 62.1732 12.173 62.8075 12.8123C63.4418 13.4516 63.7981 14.3187 63.7981 15.2228Z" fill="#33475B"/>
<path d="M76.2504 8.64503V5.62656C76.6462 5.44018 76.9813 5.14432 77.2167 4.77344C77.4521 4.40256 77.5782 3.9719 77.5802 3.53161V3.46189C77.5802 2.84545 77.3372 2.25426 76.9048 1.81837C76.4723 1.38248 75.8858 1.13761 75.2742 1.13761H75.205C74.5935 1.13761 74.0069 1.38248 73.5745 1.81837C73.142 2.25426 72.8991 2.84545 72.8991 3.46189V3.53161C72.9011 3.9719 73.0272 4.40256 73.2626 4.77344C73.498 5.14432 73.8331 5.44018 74.2289 5.62656V8.64503C73.0914 8.82043 72.0201 9.29564 71.1235 10.0226L62.9112 3.575C62.9693 3.36238 63.0003 3.14317 63.0035 2.92265C63.0044 2.40466 62.8529 1.89803 62.5681 1.46685C62.2833 1.03566 61.878 0.699293 61.4035 0.500287C60.9291 0.301281 60.4067 0.248578 59.9025 0.348844C59.3983 0.449111 58.935 0.697842 58.571 1.06358C58.2071 1.42931 57.959 1.89562 57.858 2.40351C57.757 2.91141 57.8078 3.43808 58.0038 3.91691C58.1998 4.39574 58.5324 4.80521 58.9593 5.09353C59.3862 5.38186 59.8884 5.53608 60.4023 5.53669C60.8517 5.53467 61.2927 5.41392 61.6814 5.1865L69.7691 11.5287C69.0424 12.635 68.6633 13.9364 68.6811 15.2631C68.6989 16.5898 69.1129 17.8803 69.8691 18.9664L67.4094 21.4456C67.2105 21.3816 67.0032 21.3476 66.7945 21.3449C66.3726 21.3452 65.9602 21.4716 65.6096 21.708C65.2589 21.9444 64.9857 22.2804 64.8243 22.6733C64.663 23.0662 64.6209 23.4985 64.7033 23.9156C64.7857 24.3327 64.9889 24.7157 65.2872 25.0164C65.5855 25.3171 65.9656 25.5219 66.3793 25.605C66.7931 25.688 67.222 25.6455 67.6118 25.4829C68.0017 25.3204 68.3349 25.0449 68.5695 24.6915C68.8041 24.338 68.9295 23.9224 68.9298 23.4972C68.9271 23.2867 68.8935 23.0778 68.8298 22.8774L71.2634 20.4245C72.0569 21.04 72.9797 21.4642 73.961 21.6648C74.9423 21.8654 75.9562 21.8369 76.9249 21.5815C77.8936 21.3262 78.7915 20.8507 79.5497 20.1916C80.308 19.5325 80.9066 18.7073 81.2996 17.779C81.6925 16.8507 81.8695 15.8441 81.817 14.8363C81.7645 13.8284 81.4838 12.8461 80.9964 11.9645C80.509 11.0828 79.828 10.3253 79.0053 9.74995C78.1827 9.17459 77.2403 8.79663 76.2504 8.64503ZM75.2419 18.5713C74.5763 18.5706 73.9257 18.3711 73.3725 17.998C72.8193 17.6248 72.3882 17.0947 72.1339 16.4746C71.8795 15.8546 71.8131 15.1725 71.9433 14.5144C72.0734 13.8564 72.3941 13.2521 72.8649 12.7777C73.3358 12.3034 73.9355 11.9804 74.5884 11.8495C75.2413 11.7187 75.918 11.7858 76.533 12.0425C77.1481 12.2992 77.6738 12.7339 78.0438 13.2917C78.4138 13.8495 78.6114 14.5053 78.6117 15.1763C78.6117 16.0763 78.257 16.9394 77.6256 17.5758C76.9943 18.2122 76.1379 18.5697 75.245 18.5697" fill="#FF7A59"/>
</g>
<defs>
<clipPath id="clip0_61_447">
<rect width="90" height="25.7143" fill="white" transform="translate(0 0.300781)"/>
</clipPath>
</defs>
</svg>
