<svg width="90" height="20" viewBox="0 0 90 20" fill="none" xmlns="http://www.w3.org/2000/svg">
<g clip-path="url(#clip0_61_435)">
<path d="M31.7682 11.6149L31.2318 13.1314H31.1871C31.0977 12.7895 30.9338 12.2691 30.6655 11.6446L27.7897 4.43339H24.9735V15.9267H26.8361V8.83446C26.8361 8.38841 26.8361 7.88288 26.8212 7.2584C26.8063 6.94616 26.7765 6.70827 26.7616 6.52985H26.8063C26.8957 6.9759 27 7.30301 27.0745 7.51117L30.5314 15.897H31.8427L35.2699 7.43682C35.3444 7.24353 35.4189 6.85695 35.4934 6.52985H35.5381C35.4934 7.37735 35.4636 8.13564 35.4487 8.59656V15.8821H37.4304V4.40366H34.7185L31.7682 11.6149ZM39.3079 7.64498H41.245V15.8821H39.3079V7.64498ZM40.2914 4.16576C39.9636 4.16576 39.6953 4.28471 39.4718 4.49287C39.2483 4.70102 39.1291 4.96866 39.1291 5.29576C39.1291 5.608 39.2483 5.87563 39.4718 6.08379C39.6953 6.29195 39.9636 6.39603 40.2914 6.39603C40.6192 6.39603 40.9023 6.27708 41.1109 6.08379C41.3344 5.87563 41.4536 5.608 41.4536 5.29576C41.4536 4.98353 41.3344 4.71589 41.1109 4.49287C40.9172 4.28471 40.6341 4.16576 40.2914 4.16576ZM48.1142 7.57064C47.7566 7.4963 47.3841 7.45169 47.0265 7.45169C46.1473 7.45169 45.3427 7.64498 44.6722 8.03156C44.0016 8.41814 43.4652 8.95341 43.1225 9.62249C42.7649 10.3064 42.5861 11.0945 42.5861 12.0014C42.5861 12.7895 42.7649 13.4883 43.1076 14.1276C43.4503 14.7521 43.9271 15.2576 44.5679 15.5996C45.1788 15.9416 45.894 16.12 46.6987 16.12C47.6225 16.12 48.4122 15.9267 49.0381 15.5699L49.053 15.555V13.7708L48.9785 13.8303C48.6954 14.0384 48.3675 14.2168 48.0397 14.3209C47.697 14.4399 47.3841 14.4993 47.1159 14.4993C46.341 14.4993 45.7301 14.2763 45.298 13.7857C44.851 13.3099 44.6275 12.6557 44.6275 11.8379C44.6275 10.9904 44.851 10.3213 45.3129 9.83065C45.7748 9.33999 46.3857 9.08722 47.1308 9.08722C47.7566 9.08722 48.3973 9.29538 48.9785 9.7117L49.053 9.77117V7.88288L49.0381 7.86801C48.7848 7.76393 48.5016 7.64498 48.1142 7.57064ZM54.5066 7.51117C54.0298 7.51117 53.5828 7.65985 53.1953 7.97209C52.8675 8.23972 52.644 8.6263 52.4503 9.08722H52.4354V7.64498H50.4983V15.8821H52.4354V11.6743C52.4354 10.9607 52.5844 10.3659 52.9122 9.93473C53.2401 9.48867 53.6573 9.26565 54.1639 9.26565C54.3427 9.26565 54.5215 9.31025 54.745 9.33999C54.9536 9.39946 55.1026 9.45894 55.2069 9.53328L55.2814 9.59275V7.65985L55.2367 7.64498C55.1026 7.55577 54.8344 7.51117 54.5066 7.51117ZM59.7814 7.46656C58.4255 7.46656 57.3377 7.86801 56.5778 8.65604C55.803 9.44407 55.4304 10.5295 55.4304 11.8974C55.4304 13.1761 55.8179 14.2168 56.5629 14.9751C57.3079 15.7186 58.3212 16.1051 59.5877 16.1051C60.9139 16.1051 61.9718 15.7037 62.7318 14.9008C63.5066 14.0979 63.8791 13.0274 63.8791 11.7041C63.8791 10.3956 63.5215 9.35486 62.7914 8.59656C62.091 7.83827 61.0629 7.46656 59.7814 7.46656ZM61.3311 13.8005C60.9735 14.2615 60.4073 14.4845 59.7069 14.4845C59.0066 14.4845 58.4404 14.2615 58.0381 13.7708C57.6357 13.3099 57.442 12.6408 57.442 11.7933C57.442 10.916 57.6506 10.247 58.0381 9.77117C58.4404 9.29538 58.9917 9.05749 59.692 9.05749C60.3775 9.05749 60.9139 9.28051 61.3013 9.74144C61.6887 10.2024 61.8973 10.8714 61.8973 11.7487C61.8675 12.6408 61.7036 13.3396 61.3311 13.8005ZM68.2003 11.0647C67.5894 10.812 67.202 10.6187 67.0232 10.4551C66.8742 10.3064 66.7997 10.0983 66.7997 9.83065C66.7997 9.60762 66.8891 9.38459 67.1126 9.23591C67.3361 9.08722 67.5894 9.01288 67.9619 9.01288C68.2897 9.01288 68.6324 9.07236 68.9602 9.16157C69.2881 9.25078 69.5861 9.38459 69.8245 9.56302L69.899 9.62249V7.80854L69.8543 7.79367C69.6308 7.70446 69.3328 7.61525 68.9751 7.5409C68.6175 7.48143 68.2897 7.45169 68.0215 7.45169C67.0977 7.45169 66.3377 7.67472 65.7417 8.16538C65.1457 8.6263 64.8626 9.25078 64.8626 9.97933C64.8626 10.3659 64.9222 10.7079 65.0563 10.9904C65.1904 11.2729 65.3841 11.5405 65.6523 11.7635C65.9205 11.9717 66.3079 12.2096 66.8444 12.4326C67.2914 12.6259 67.6341 12.7746 67.8427 12.8936C68.0513 13.0125 68.1854 13.1463 68.2897 13.2504C68.3642 13.3693 68.4089 13.518 68.4089 13.7113C68.4089 14.2615 67.9917 14.5291 67.1424 14.5291C66.8146 14.5291 66.4718 14.4696 66.0695 14.3358C65.6672 14.202 65.2947 14.0087 64.9818 13.7857L64.9073 13.7262V15.6145L64.952 15.6294C65.2351 15.7632 65.5778 15.8524 65.995 15.9565C66.4122 16.0308 66.7848 16.0903 67.1126 16.0903C68.1109 16.0903 68.9304 15.8672 69.5116 15.3766C70.1076 14.9008 70.4205 14.2912 70.4205 13.5032C70.4205 12.953 70.2715 12.4624 69.9437 12.0907C69.5116 11.7338 68.9752 11.3621 68.2003 11.0647ZM75.5314 7.46656C74.1755 7.46656 73.0877 7.86801 72.3278 8.65604C71.5679 9.44407 71.1805 10.5295 71.1805 11.8974C71.1805 13.1761 71.5679 14.2168 72.3129 14.9751C73.0579 15.7186 74.0712 16.1051 75.3377 16.1051C76.6639 16.1051 77.7218 15.7037 78.4818 14.9008C79.2566 14.0979 79.6291 13.0274 79.6291 11.7041C79.6291 10.3956 79.2715 9.35486 78.5414 8.59656C77.841 7.83827 76.8129 7.46656 75.5314 7.46656ZM77.0662 13.8005C76.7086 14.2615 76.1424 14.4845 75.442 14.4845C74.7268 14.4845 74.1755 14.2615 73.7732 13.7708C73.3708 13.3099 73.1771 12.6408 73.1771 11.7933C73.1771 10.916 73.3857 10.247 73.7732 9.77117C74.1755 9.29538 74.7268 9.05749 75.4271 9.05749C76.0977 9.05749 76.649 9.28051 77.0364 9.74144C77.4238 10.2024 77.6324 10.8714 77.6324 11.7487C77.6324 12.6408 77.4387 13.3396 77.0662 13.8005ZM89.9851 9.23591V7.64498H88.0331V5.20655L87.9735 5.22142L86.1258 5.77155L86.0811 5.78642V7.64498H83.1606V6.60419C83.1606 6.1284 83.2798 5.75669 83.4884 5.51879C83.697 5.28089 84.0099 5.16195 84.3973 5.16195C84.6656 5.16195 84.9487 5.22142 85.2616 5.35524L85.3361 5.39984V3.71971L85.2914 3.70484C85.0232 3.61563 84.6655 3.55615 84.2036 3.55615C83.6225 3.55615 83.1159 3.68997 82.654 3.913C82.192 4.16576 81.8493 4.50773 81.596 4.96866C81.3427 5.41471 81.2086 5.92024 81.2086 6.50011V7.64498H79.8526V9.22104H81.2086V15.8821H83.1606V9.23591H86.0811V13.4734C86.0811 15.213 86.9006 16.0903 88.5397 16.0903C88.8079 16.0903 89.091 16.0457 89.3593 16.0011C89.6424 15.9416 89.851 15.8672 89.9702 15.8078L89.9851 15.7929V14.202L89.9106 14.2615C89.7914 14.3358 89.6871 14.3953 89.5083 14.4399C89.3593 14.4845 89.2251 14.4993 89.1208 14.4993C88.7334 14.4993 88.4652 14.4101 88.2715 14.1871C88.0927 13.979 88.0033 13.637 88.0033 13.1314V9.23591H89.9851Z" fill="#737373"/>
<path d="M0 0.567627H9.13411V9.682H0V0.567627Z" fill="#F25022"/>
<path d="M10.0877 0.567627H19.2218V9.682H10.0877V0.567627Z" fill="#7FBA00"/>
<path d="M0 10.6335H9.13411V19.7479H0V10.6335Z" fill="#00A4EF"/>
<path d="M10.0877 10.6335H19.2218V19.7479H10.0877V10.6335Z" fill="#FFB900"/>
</g>
<defs>
<clipPath id="clip0_61_435">
<rect width="90" height="19.1803" fill="white" transform="translate(0 0.567627)"/>
</clipPath>
</defs>
</svg>
